<svg width="520" height="320" viewBox="0 0 520 320" fill="none" xmlns="http://www.w3.org/2000/svg">
<g filter="url(#filter0_d_5152_31111)">
<path d="M414.506 38.5781H99.4919C90.1496 38.5781 82.5762 46.1515 82.5762 55.4938V286.508C82.5762 295.851 90.1496 303.424 99.4919 303.424H414.506C423.849 303.424 431.422 295.851 431.422 286.508V55.4938C431.422 46.1515 423.849 38.5781 414.506 38.5781Z" fill="#F1F1F1" stroke="#DBDBDE" stroke-width="1.15357"/>
<path d="M106.504 58.7266H106.478C104.553 58.7266 102.992 60.287 102.992 62.212V62.212C102.992 64.1369 104.553 65.6974 106.478 65.6974H106.504C108.429 65.6974 109.989 64.1369 109.989 62.212V62.212C109.989 60.287 108.429 58.7266 106.504 58.7266Z" fill="#B7B7BD"/>
<path d="M120.498 58.7266H120.472C118.547 58.7266 116.986 60.287 116.986 62.212V62.212C116.986 64.1369 118.547 65.6974 120.472 65.6974H120.498C122.423 65.6974 123.983 64.1369 123.983 62.212V62.212C123.983 60.287 122.423 58.7266 120.498 58.7266Z" fill="#DBDBDE"/>
<path d="M134.49 58.7266H134.464C132.539 58.7266 130.979 60.287 130.979 62.212V62.212C130.979 64.1369 132.539 65.6974 134.464 65.6974H134.49C136.415 65.6974 137.976 64.1369 137.976 62.212V62.212C137.976 60.287 136.415 58.7266 134.49 58.7266Z" fill="#C9C9CE"/>
<path d="M103 159.562C103 156.802 105.239 154.562 108 154.562H192.213C194.974 154.562 197.213 156.802 197.213 159.562V205.879C197.213 208.641 194.974 210.879 192.213 210.879H108C105.239 210.879 103 208.641 103 205.879V159.562Z" fill="#FFF9EA"/>
<path d="M107.999 210.171C107.416 210.171 106.861 210.055 106.356 209.845L105.814 211.151C106.488 211.43 107.227 211.584 107.999 211.584V210.171ZM104.031 207.521C103.822 207.015 103.706 206.461 103.706 205.877H102.292C102.292 206.65 102.446 207.388 102.726 208.062L104.031 207.521ZM103.706 205.877V204.591H102.292V205.877H103.706ZM103.706 202.018V199.445H102.292V202.018H103.706ZM103.706 196.872V194.298H102.292V196.872H103.706ZM103.706 191.725V189.152H102.292V191.725H103.706ZM103.706 186.579V184.006H102.292V186.579H103.706ZM103.706 181.433V178.86H102.292V181.433H103.706ZM103.706 176.287V173.714H102.292V176.287H103.706ZM103.706 171.14V168.567H102.292V171.14H103.706ZM103.706 165.994V163.421H102.292V165.994H103.706ZM103.706 160.848V159.561H102.292V160.848H103.706ZM103.706 159.561C103.706 158.978 103.822 158.423 104.031 157.918L102.726 157.377C102.446 158.051 102.292 158.789 102.292 159.561H103.706ZM106.356 155.594C106.861 155.384 107.416 155.268 107.999 155.268V153.855C107.227 153.855 106.488 154.009 105.814 154.288L106.356 155.594ZM107.999 155.268H109.315V153.855H107.999V155.268ZM111.946 155.268H114.578V153.855H111.946V155.268ZM117.21 155.268H119.841V153.855H117.21V155.268ZM122.473 155.268H125.105V153.855H122.473V155.268ZM127.736 155.268H130.368V153.855H127.736V155.268ZM133 155.268H135.631V153.855H133V155.268ZM138.263 155.268H140.895V153.855H138.263V155.268ZM143.526 155.268H146.158V153.855H143.526V155.268ZM148.79 155.268H151.421V153.855H148.79V155.268ZM154.053 155.268H156.684V153.855H154.053V155.268ZM159.316 155.268H161.948V153.855H159.316V155.268ZM164.579 155.268H167.211V153.855H164.579V155.268ZM169.843 155.268H172.474V153.855H169.843V155.268ZM175.106 155.268H177.738V153.855H175.106V155.268ZM180.369 155.268H183.001V153.855H180.369V155.268ZM185.633 155.268H188.264V153.855H185.633V155.268ZM190.896 155.268H192.212V153.855H190.896V155.268ZM192.212 155.268C192.795 155.268 193.35 155.384 193.855 155.594L194.396 154.288C193.722 154.009 192.984 153.855 192.212 153.855V155.268ZM196.18 157.918C196.389 158.423 196.505 158.978 196.505 159.561H197.918C197.918 158.789 197.764 158.051 197.485 157.377L196.18 157.918ZM196.505 159.561V160.848H197.918V159.561H196.505ZM196.505 163.421V165.994H197.918V163.421H196.505ZM196.505 168.567V171.14H197.918V168.567H196.505ZM196.505 173.714V176.287H197.918V173.714H196.505ZM196.505 178.86V181.433H197.918V178.86H196.505ZM196.505 184.006V186.579H197.918V184.006H196.505ZM196.505 189.152V191.725H197.918V189.152H196.505ZM196.505 194.298V196.872H197.918V194.298H196.505ZM196.505 199.445V202.018H197.918V199.445H196.505ZM196.505 204.591V205.877H197.918V204.591H196.505ZM196.505 205.877C196.505 206.461 196.389 207.015 196.18 207.521L197.485 208.062C197.764 207.388 197.918 206.65 197.918 205.877H196.505ZM193.855 209.845C193.35 210.055 192.795 210.171 192.212 210.171V211.584C192.984 211.584 193.722 211.43 194.396 211.151L193.855 209.845ZM192.212 210.171H190.896V211.584H192.212V210.171ZM188.264 210.171H185.633V211.584H188.264V210.171ZM183.001 210.171H180.369V211.584H183.001V210.171ZM177.738 210.171H175.106V211.584H177.738V210.171ZM172.474 210.171H169.843V211.584H172.474V210.171ZM167.211 210.171H164.579V211.584H167.211V210.171ZM161.948 210.171H159.316V211.584H161.948V210.171ZM156.684 210.171H154.053V211.584H156.684V210.171ZM151.421 210.171H148.79V211.584H151.421V210.171ZM146.158 210.171H143.526V211.584H146.158V210.171ZM140.895 210.171H138.263V211.584H140.895V210.171ZM135.631 210.171H133V211.584H135.631V210.171ZM130.368 210.171H127.736V211.584H130.368V210.171ZM125.105 210.171H122.473V211.584H125.105V210.171ZM119.841 210.171H117.21V211.584H119.841V210.171ZM114.578 210.171H111.946V211.584H114.578V210.171ZM109.315 210.171H107.999V211.584H109.315V210.171ZM107.999 209.464C107.51 209.464 107.047 209.367 106.626 209.193L105.544 211.803C106.302 212.118 107.132 212.291 107.999 212.291V209.464ZM104.684 207.25C104.509 206.829 104.412 206.366 104.412 205.877H101.586C101.586 206.744 101.759 207.575 102.073 208.333L104.684 207.25ZM104.412 205.877V204.591H101.586V205.877H104.412ZM104.412 202.018V199.445H101.586V202.018H104.412ZM104.412 196.872V194.298H101.586V196.872H104.412ZM104.412 191.725V189.152H101.586V191.725H104.412ZM104.412 186.579V184.006H101.586V186.579H104.412ZM104.412 181.433V178.86H101.586V181.433H104.412ZM104.412 176.287V173.714H101.586V176.287H104.412ZM104.412 171.14V168.567H101.586V171.14H104.412ZM104.412 165.994V163.421H101.586V165.994H104.412ZM104.412 160.848V159.561H101.586V160.848H104.412ZM104.412 159.561C104.412 159.073 104.509 158.61 104.684 158.189L102.073 157.106C101.759 157.864 101.586 158.695 101.586 159.561H104.412ZM106.626 156.246C107.047 156.072 107.51 155.975 107.999 155.975V153.148C107.132 153.148 106.302 153.321 105.544 153.636L106.626 156.246ZM107.999 155.975H109.315V153.148H107.999V155.975ZM111.946 155.975H114.578V153.148H111.946V155.975ZM117.21 155.975H119.841V153.148H117.21V155.975ZM122.473 155.975H125.105V153.148H122.473V155.975ZM127.736 155.975H130.368V153.148H127.736V155.975ZM133 155.975H135.631V153.148H133V155.975ZM138.263 155.975H140.895V153.148H138.263V155.975ZM143.526 155.975H146.158V153.148H143.526V155.975ZM148.79 155.975H151.421V153.148H148.79V155.975ZM154.053 155.975H156.684V153.148H154.053V155.975ZM159.316 155.975H161.948V153.148H159.316V155.975ZM164.579 155.975H167.211V153.148H164.579V155.975ZM169.843 155.975H172.474V153.148H169.843V155.975ZM175.106 155.975H177.738V153.148H175.106V155.975ZM180.369 155.975H183.001V153.148H180.369V155.975ZM185.633 155.975H188.264V153.148H185.633V155.975ZM190.896 155.975H192.212V153.148H190.896V155.975ZM192.212 155.975C192.701 155.975 193.163 156.072 193.584 156.246L194.667 153.636C193.909 153.321 193.079 153.148 192.212 153.148V155.975ZM195.527 158.189C195.701 158.61 195.798 159.073 195.798 159.561H198.625C198.625 158.695 198.452 157.864 198.138 157.106L195.527 158.189ZM195.798 159.561V160.848H198.625V159.561H195.798ZM195.798 163.421V165.994H198.625V163.421H195.798ZM195.798 168.567V171.14H198.625V168.567H195.798ZM195.798 173.714V176.287H198.625V173.714H195.798ZM195.798 178.86V181.433H198.625V178.86H195.798ZM195.798 184.006V186.579H198.625V184.006H195.798ZM195.798 189.152V191.725H198.625V189.152H195.798ZM195.798 194.298V196.872H198.625V194.298H195.798ZM195.798 199.445V202.018H198.625V199.445H195.798ZM195.798 204.591V205.877H198.625V204.591H195.798ZM195.798 205.877C195.798 206.366 195.701 206.829 195.527 207.25L198.138 208.333C198.452 207.575 198.625 206.744 198.625 205.877H195.798ZM193.584 209.193C193.163 209.367 192.701 209.464 192.212 209.464V212.291C193.079 212.291 193.909 212.118 194.667 211.803L193.584 209.193ZM192.212 209.464H190.896V212.291H192.212V209.464ZM188.264 209.464H185.633V212.291H188.264V209.464ZM183.001 209.464H180.369V212.291H183.001V209.464ZM177.738 209.464H175.106V212.291H177.738V209.464ZM172.474 209.464H169.843V212.291H172.474V209.464ZM167.211 209.464H164.579V212.291H167.211V209.464ZM161.948 209.464H159.316V212.291H161.948V209.464ZM156.684 209.464H154.053V212.291H156.684V209.464ZM151.421 209.464H148.79V212.291H151.421V209.464ZM146.158 209.464H143.526V212.291H146.158V209.464ZM140.895 209.464H138.263V212.291H140.895V209.464ZM135.631 209.464H133V212.291H135.631V209.464ZM130.368 209.464H127.736V212.291H130.368V209.464ZM125.105 209.464H122.473V212.291H125.105V209.464ZM119.841 209.464H117.21V212.291H119.841V209.464ZM114.578 209.464H111.946V212.291H114.578V209.464ZM109.315 209.464H107.999V212.291H109.315V209.464Z" fill="#FFCF54"/>
<path d="M300.213 154.797H216.001C213.369 154.797 211.236 156.93 211.236 159.561V206.089C211.236 208.72 213.369 210.853 216.001 210.853H300.213C302.845 210.853 304.978 208.72 304.978 206.089V159.561C304.978 156.93 302.845 154.797 300.213 154.797Z" fill="white"/>
<path d="M290.61 169.641H225.603C224.562 169.641 223.719 170.484 223.719 171.525C223.719 172.566 224.562 173.409 225.603 173.409H290.61C291.65 173.409 292.494 172.566 292.494 171.525C292.494 170.484 291.65 169.641 290.61 169.641Z" fill="#EDEDEF"/>
<path d="M290.61 180.945H225.603C224.562 180.945 223.719 181.789 223.719 182.83C223.719 183.87 224.562 184.714 225.603 184.714H290.61C291.65 184.714 292.494 183.87 292.494 182.83C292.494 181.789 291.65 180.945 290.61 180.945Z" fill="#EDEDEF"/>
<path d="M290.61 192.25H225.603C224.562 192.25 223.719 193.094 223.719 194.134V194.134C223.719 195.175 224.562 196.019 225.603 196.019H290.61C291.65 196.019 292.494 195.175 292.494 194.134C292.494 193.094 291.65 192.25 290.61 192.25Z" fill="#EDEDEF"/>
<path d="M300.213 154.797H216.001C213.369 154.797 211.236 156.93 211.236 159.561V206.089C211.236 208.72 213.369 210.853 216.001 210.853H300.213C302.845 210.853 304.978 208.72 304.978 206.089V159.561C304.978 156.93 302.845 154.797 300.213 154.797Z" stroke="#ECECEE" stroke-width="0.471063"/>
<path d="M192.411 221.547H108.198C105.567 221.547 103.434 223.68 103.434 226.311V272.839C103.434 275.47 105.567 277.603 108.198 277.603H192.411C195.042 277.603 197.175 275.47 197.175 272.839V226.311C197.175 223.68 195.042 221.547 192.411 221.547Z" fill="white"/>
<path d="M182.809 236.391H117.802C116.762 236.391 115.918 237.234 115.918 238.275C115.918 239.316 116.762 240.159 117.802 240.159H182.809C183.85 240.159 184.693 239.316 184.693 238.275C184.693 237.234 183.85 236.391 182.809 236.391Z" fill="#EDEDEF"/>
<path d="M182.809 247.695H117.802C116.762 247.695 115.918 248.539 115.918 249.58C115.918 250.62 116.762 251.464 117.802 251.464H182.809C183.85 251.464 184.693 250.62 184.693 249.58C184.693 248.539 183.85 247.695 182.809 247.695Z" fill="#EDEDEF"/>
<path d="M182.809 259H117.802C116.762 259 115.918 259.844 115.918 260.884C115.918 261.925 116.762 262.768 117.802 262.768H182.809C183.85 262.768 184.693 261.925 184.693 260.884C184.693 259.844 183.85 259 182.809 259Z" fill="#EDEDEF"/>
<path d="M192.411 221.547H108.198C105.567 221.547 103.434 223.68 103.434 226.311V272.839C103.434 275.47 105.567 277.603 108.198 277.603H192.411C195.042 277.603 197.175 275.47 197.175 272.839V226.311C197.175 223.68 195.042 221.547 192.411 221.547Z" stroke="#ECECEE" stroke-width="0.471063"/>
<path d="M192.411 88.0469H108.198C105.567 88.0469 103.434 90.18 103.434 92.8113V139.339C103.434 141.97 105.567 144.103 108.198 144.103H192.411C195.042 144.103 197.175 141.97 197.175 139.339V92.8113C197.175 90.18 195.042 88.0469 192.411 88.0469Z" fill="white"/>
<path d="M182.809 102.891H117.802C116.762 102.891 115.918 103.734 115.918 104.775V104.775C115.918 105.816 116.762 106.659 117.802 106.659H182.809C183.85 106.659 184.693 105.816 184.693 104.775C184.693 103.734 183.85 102.891 182.809 102.891Z" fill="#EDEDEF"/>
<path d="M182.809 114.195H117.802C116.762 114.195 115.918 115.039 115.918 116.08V116.08C115.918 117.12 116.762 117.964 117.802 117.964H182.809C183.85 117.964 184.693 117.12 184.693 116.08C184.693 115.039 183.85 114.195 182.809 114.195Z" fill="#EDEDEF"/>
<path d="M182.809 125.5H117.802C116.762 125.5 115.918 126.344 115.918 127.384V127.384C115.918 128.425 116.762 129.269 117.802 129.269H182.809C183.85 129.269 184.693 128.425 184.693 127.384C184.693 126.344 183.85 125.5 182.809 125.5Z" fill="#EDEDEF"/>
<path d="M192.411 88.0469H108.198C105.567 88.0469 103.434 90.18 103.434 92.8113V139.339C103.434 141.97 105.567 144.103 108.198 144.103H192.411C195.042 144.103 197.175 141.97 197.175 139.339V92.8113C197.175 90.18 195.042 88.0469 192.411 88.0469Z" stroke="#ECECEE" stroke-width="0.471063"/>
<path d="M403.213 154.797H319.001C316.369 154.797 314.236 156.93 314.236 159.561V206.089C314.236 208.72 316.369 210.853 319.001 210.853H403.213C405.845 210.853 407.978 208.72 407.978 206.089V159.561C407.978 156.93 405.845 154.797 403.213 154.797Z" fill="white"/>
<path d="M393.61 169.641H328.603C327.562 169.641 326.719 170.484 326.719 171.525C326.719 172.566 327.562 173.409 328.603 173.409H393.61C394.65 173.409 395.494 172.566 395.494 171.525C395.494 170.484 394.65 169.641 393.61 169.641Z" fill="#EDEDEF"/>
<path d="M393.61 180.945H328.603C327.562 180.945 326.719 181.789 326.719 182.83C326.719 183.87 327.562 184.714 328.603 184.714H393.61C394.65 184.714 395.494 183.87 395.494 182.83C395.494 181.789 394.65 180.945 393.61 180.945Z" fill="#EDEDEF"/>
<path d="M393.61 192.25H328.603C327.562 192.25 326.719 193.094 326.719 194.134V194.134C326.719 195.175 327.562 196.019 328.603 196.019H393.61C394.65 196.019 395.494 195.175 395.494 194.134C395.494 193.094 394.65 192.25 393.61 192.25Z" fill="#EDEDEF"/>
<path d="M403.213 154.797H319.001C316.369 154.797 314.236 156.93 314.236 159.561V206.089C314.236 208.72 316.369 210.853 319.001 210.853H403.213C405.845 210.853 407.978 208.72 407.978 206.089V159.561C407.978 156.93 405.845 154.797 403.213 154.797Z" stroke="#ECECEE" stroke-width="0.471063"/>
<path d="M403.446 88.0469H319.233C316.602 88.0469 314.469 90.18 314.469 92.8113V139.339C314.469 141.97 316.602 144.103 319.233 144.103H403.446C406.077 144.103 408.21 141.97 408.21 139.339V92.8113C408.21 90.18 406.077 88.0469 403.446 88.0469Z" fill="white"/>
<path d="M393.844 102.891H328.837C327.797 102.891 326.953 103.734 326.953 104.775V104.775C326.953 105.816 327.797 106.659 328.837 106.659H393.844C394.885 106.659 395.728 105.816 395.728 104.775C395.728 103.734 394.885 102.891 393.844 102.891Z" fill="#EDEDEF"/>
<path d="M393.844 114.195H328.837C327.797 114.195 326.953 115.039 326.953 116.08V116.08C326.953 117.12 327.797 117.964 328.837 117.964H393.844C394.885 117.964 395.728 117.12 395.728 116.08C395.728 115.039 394.885 114.195 393.844 114.195Z" fill="#EDEDEF"/>
<path d="M393.844 125.5H328.837C327.797 125.5 326.953 126.344 326.953 127.384V127.384C326.953 128.425 327.797 129.269 328.837 129.269H393.844C394.885 129.269 395.728 128.425 395.728 127.384C395.728 126.344 394.885 125.5 393.844 125.5Z" fill="#EDEDEF"/>
<path d="M403.446 88.0469H319.233C316.602 88.0469 314.469 90.18 314.469 92.8113V139.339C314.469 141.97 316.602 144.103 319.233 144.103H403.446C406.077 144.103 408.21 141.97 408.21 139.339V92.8113C408.21 90.18 406.077 88.0469 403.446 88.0469Z" stroke="#ECECEE" stroke-width="0.471063"/>
<path d="M297.926 221.547H213.714C211.082 221.547 208.949 223.68 208.949 226.311V272.627C208.949 275.259 211.082 277.392 213.714 277.392H297.926C300.558 277.392 302.691 275.259 302.691 272.627V226.311C302.691 223.68 300.558 221.547 297.926 221.547Z" fill="white"/>
<path d="M288.325 236.281H223.318C222.277 236.281 221.434 237.125 221.434 238.165C221.434 239.206 222.277 240.05 223.318 240.05H288.325C289.365 240.05 290.209 239.206 290.209 238.165C290.209 237.125 289.365 236.281 288.325 236.281Z" fill="#EDEDEF"/>
<path d="M288.325 247.586H223.318C222.277 247.586 221.434 248.43 221.434 249.47V249.47C221.434 250.511 222.277 251.354 223.318 251.354H288.325C289.365 251.354 290.209 250.511 290.209 249.47C290.209 248.43 289.365 247.586 288.325 247.586Z" fill="#EDEDEF"/>
<path d="M288.325 258.891H223.318C222.277 258.891 221.434 259.734 221.434 260.775V260.775C221.434 261.816 222.277 262.659 223.318 262.659H288.325C289.365 262.659 290.209 261.816 290.209 260.775V260.775C290.209 259.734 289.365 258.891 288.325 258.891Z" fill="#EDEDEF"/>
<path d="M297.926 221.547H213.714C211.082 221.547 208.949 223.68 208.949 226.311V272.627C208.949 275.259 211.082 277.392 213.714 277.392H297.926C300.558 277.392 302.691 275.259 302.691 272.627V226.311C302.691 223.68 300.558 221.547 297.926 221.547Z" stroke="#ECECEE" stroke-width="0.471063"/>
</g>
<g filter="url(#filter1_d_5152_31111)">
<path d="M321.637 92H220.03C217.252 92 215 94.252 215 97.03V153.97C215 156.748 217.252 159 220.03 159H321.637C324.415 159 326.667 156.748 326.667 153.97V97.03C326.667 94.252 324.415 92 321.637 92Z" fill="#FFC329"/>
<path d="M309.358 109.867H232.308C231.074 109.867 230.074 110.867 230.074 112.101V112.101C230.074 113.334 231.074 114.334 232.308 114.334H309.358C310.591 114.334 311.591 113.334 311.591 112.101C311.591 110.867 310.591 109.867 309.358 109.867Z" fill="#FFD56A"/>
<path d="M309.358 123.266H232.308C231.074 123.266 230.074 124.266 230.074 125.499V125.499C230.074 126.732 231.074 127.732 232.308 127.732H309.358C310.591 127.732 311.591 126.732 311.591 125.499C311.591 124.266 310.591 123.266 309.358 123.266Z" fill="#FFD56A"/>
<path d="M309.358 136.672H232.308C231.074 136.672 230.074 137.672 230.074 138.905C230.074 140.139 231.074 141.139 232.308 141.139H309.358C310.591 141.139 311.591 140.139 311.591 138.905C311.591 137.672 310.591 136.672 309.358 136.672Z" fill="#FFD56A"/>
</g>
<g filter="url(#filter2_d_5152_31111)">
<path d="M226 181H125C122.239 181 120 183.239 120 186V242.6C120 245.361 122.239 247.6 125 247.6H226C228.761 247.6 231 245.361 231 242.6V186C231 183.239 228.761 181 226 181Z" fill="#FFD56A"/>
<path d="M213.794 198.766H137.204C135.978 198.766 134.984 199.76 134.984 200.986C134.984 202.212 135.978 203.206 137.204 203.206H213.794C215.02 203.206 216.014 202.212 216.014 200.986C216.014 199.76 215.02 198.766 213.794 198.766Z" fill="#FFC93F"/>
<path d="M213.794 212.078H137.204C135.978 212.078 134.984 213.072 134.984 214.298C134.984 215.524 135.978 216.518 137.204 216.518H213.794C215.02 216.518 216.014 215.524 216.014 214.298C216.014 213.072 215.02 212.078 213.794 212.078Z" fill="#FFC93F"/>
<path d="M213.794 225.398H137.204C135.978 225.398 134.984 226.392 134.984 227.618C134.984 228.845 135.978 229.838 137.204 229.838H213.794C215.02 229.838 216.014 228.845 216.014 227.618C216.014 226.392 215.02 225.398 213.794 225.398Z" fill="#FFC93F"/>
</g>
<g filter="url(#filter3_d_5152_31111)">
<path d="M486.4 121H411.6C401.88 121 394 128.88 394 138.6V213.4C394 223.12 401.88 231 411.6 231H486.4C496.12 231 504 223.12 504 213.4V138.6C504 128.88 496.12 121 486.4 121Z" fill="#6AA3FC"/>
<path fill-rule="evenodd" clip-rule="evenodd" d="M419.167 142.38C419.167 141.918 419.541 141.544 420.003 141.544H458.503C458.965 141.544 459.339 141.918 459.339 142.38V190.208C459.339 190.67 458.965 191.044 458.503 191.044H420.003C419.541 191.044 419.167 190.67 419.167 190.208V142.38ZM420.003 136C416.479 136 413.623 138.856 413.623 142.38V190.208C413.623 193.732 416.479 196.588 420.003 196.588H423.347V199.891V199.896C423.348 200.732 423.513 201.56 423.833 202.332C424.153 203.106 424.623 203.81 425.216 204.402C425.808 204.994 426.511 205.464 427.285 205.785C428.059 206.106 428.889 206.271 429.727 206.271V200.727C429.617 200.727 429.508 200.705 429.407 200.663C429.306 200.621 429.213 200.56 429.136 200.482C429.058 200.404 428.997 200.312 428.955 200.211C428.913 200.109 428.891 200.001 428.891 199.891V196.588H458.503C462.027 196.588 464.883 193.732 464.883 190.208V151.221H468.227C468.449 151.221 468.662 151.309 468.818 151.465C468.975 151.622 469.063 151.835 469.063 152.057V199.885C469.063 199.994 469.042 200.103 469 200.204C468.958 200.306 468.896 200.398 468.818 200.476C468.741 200.553 468.649 200.615 468.547 200.657C468.446 200.699 468.337 200.721 468.227 200.721H429.771V206.265H433.071V209.609H438.615V206.265H468.227C469.065 206.265 469.895 206.1 470.669 205.779C471.443 205.458 472.146 204.988 472.739 204.396C473.331 203.803 473.801 203.1 474.122 202.326C474.442 201.552 474.607 200.722 474.607 199.885V160.949H477.996C478.218 160.949 478.43 161.037 478.587 161.194C478.744 161.35 478.832 161.563 478.832 161.785V209.613C478.832 209.834 478.744 210.047 478.587 210.204C478.43 210.361 478.218 210.449 477.996 210.449H439.452V215.993H477.996C479.688 215.993 481.311 215.321 482.507 214.124C483.704 212.928 484.376 211.305 484.376 209.613V161.785C484.376 160.093 483.704 158.47 482.507 157.273C481.311 156.077 479.688 155.405 477.996 155.405H474.607V152.057C474.607 150.364 473.935 148.742 472.739 147.545C471.542 146.349 469.919 145.677 468.227 145.677H464.883V142.38C464.883 138.856 462.027 136 458.503 136H420.003ZM427.137 166.306L439.24 154.204L451.343 166.306L439.24 178.409L427.137 166.306ZM433.071 209.619C433.071 211.311 433.743 212.934 434.939 214.13C436.136 215.327 437.759 215.999 439.451 215.999V210.455C439.229 210.455 439.016 210.367 438.86 210.21C438.703 210.053 438.615 209.841 438.615 209.619H433.071Z" fill="white"/>
</g>
<g filter="url(#filter4_d_5152_31111)">
<path d="M163.862 194.5C136.534 194.973 119.309 178.596 110 165C126.277 191.835 136.5 200 163.862 200V204.165L176 196.912L163.862 190.203V194.5Z" fill="#8B88FF"/>
</g>
<g opacity="0.6" filter="url(#filter5_d_5152_31111)">
<path d="M16 23.43C16 19.3265 19.3265 16 23.43 16H148.57C152.673 16 156 19.3265 156 23.43V92.57C156 96.6735 152.673 100 148.57 100H23.43C19.3265 100 16 96.6735 16 92.57V23.43Z" fill="#FFF9EA"/>
<path d="M23.4304 98.9484C22.5634 98.9484 21.7393 98.776 20.9885 98.4647L20.1841 100.404C21.1854 100.819 22.2825 101.048 23.4304 101.048V98.9484ZM17.5341 95.0103C17.2228 94.2595 17.0504 93.4354 17.0504 92.5684H14.9504C14.9504 93.7163 15.1791 94.8134 15.5943 95.8147L17.5341 95.0103ZM17.0504 92.5684V90.6479H14.9504V92.5684H17.0504ZM17.0504 86.8067V82.9656H14.9504V86.8067H17.0504ZM17.0504 79.1245V75.2834H14.9504V79.1245H17.0504ZM17.0504 71.4423V67.6012H14.9504V71.4423H17.0504ZM17.0504 63.7601V59.919H14.9504V63.7601H17.0504ZM17.0504 56.0778V52.2367H14.9504V56.0778H17.0504ZM17.0504 48.3956V44.5545H14.9504V48.3956H17.0504ZM17.0504 40.7134V36.8723H14.9504V40.7134H17.0504ZM17.0504 33.0312V29.1901H14.9504V33.0312H17.0504ZM17.0504 25.349V23.4284H14.9504V25.349H17.0504ZM17.0504 23.4284C17.0504 22.5614 17.2228 21.7373 17.5341 20.9865L15.5943 20.1821C15.1791 21.1834 14.9504 22.2805 14.9504 23.4284H17.0504ZM20.9885 17.5321C21.7393 17.2208 22.5634 17.0484 23.4304 17.0484V14.9484C22.2825 14.9484 21.1854 15.1771 20.1841 15.5923L20.9885 17.5321ZM23.4304 17.0484H25.3857V14.9484H23.4304V17.0484ZM29.2963 17.0484H33.207V14.9484H29.2963V17.0484ZM37.1176 17.0484H41.0282V14.9484H37.1176V17.0484ZM44.9388 17.0484H48.8495V14.9484H44.9388V17.0484ZM52.7601 17.0484H56.6707V14.9484H52.7601V17.0484ZM60.5813 17.0484H64.492V14.9484H60.5813V17.0484ZM68.4026 17.0484H72.3132V14.9484H68.4026V17.0484ZM76.2238 17.0484H80.1345V14.9484H76.2238V17.0484ZM84.0451 17.0484H87.9557V14.9484H84.0451V17.0484ZM91.8663 17.0484H95.777V14.9484H91.8663V17.0484ZM99.6876 17.0484H103.598V14.9484H99.6876V17.0484ZM107.508 17.0484H111.419V14.9484H107.508V17.0484ZM115.33 17.0484H119.24V14.9484H115.33V17.0484ZM123.151 17.0484H127.062V14.9484H123.151V17.0484ZM130.972 17.0484H134.883V14.9484H130.972V17.0484ZM138.793 17.0484H142.704V14.9484H138.793V17.0484ZM146.615 17.0484H148.57V14.9484H146.615V17.0484ZM148.57 17.0484C149.437 17.0484 150.261 17.2208 151.012 17.5321L151.816 15.5923C150.815 15.1771 149.718 14.9484 148.57 14.9484V17.0484ZM154.466 20.9865C154.778 21.7373 154.95 22.5614 154.95 23.4284H157.05C157.05 22.2805 156.821 21.1834 156.406 20.1821L154.466 20.9865ZM154.95 23.4284V25.349H157.05V23.4284H154.95ZM154.95 29.1901V33.0312H157.05V29.1901H154.95ZM154.95 36.8723V40.7134H157.05V36.8723H154.95ZM154.95 44.5545V48.3956H157.05V44.5545H154.95ZM154.95 52.2367V56.0778H157.05V52.2367H154.95ZM154.95 59.919V63.7601H157.05V59.919H154.95ZM154.95 67.6012V71.4423H157.05V67.6012H154.95ZM154.95 75.2834V79.1245H157.05V75.2834H154.95ZM154.95 82.9656V86.8067H157.05V82.9656H154.95ZM154.95 90.6478V92.5684H157.05V90.6478H154.95ZM154.95 92.5684C154.95 93.4354 154.778 94.2595 154.466 95.0103L156.406 95.8147C156.821 94.8134 157.05 93.7163 157.05 92.5684H154.95ZM151.012 98.4647C150.261 98.776 149.437 98.9484 148.57 98.9484V101.048C149.718 101.048 150.815 100.819 151.816 100.404L151.012 98.4647ZM148.57 98.9484H146.615V101.048H148.57V98.9484ZM142.704 98.9484H138.793V101.048H142.704V98.9484ZM134.883 98.9484H130.972V101.048H134.883V98.9484ZM127.062 98.9484H123.151V101.048H127.062V98.9484ZM119.24 98.9484H115.33V101.048H119.24V98.9484ZM111.419 98.9484H107.508V101.048H111.419V98.9484ZM103.598 98.9484H99.6876V101.048H103.598V98.9484ZM95.777 98.9484H91.8664V101.048H95.777V98.9484ZM87.9557 98.9484H84.0451V101.048H87.9557V98.9484ZM80.1345 98.9484H76.2239V101.048H80.1345V98.9484ZM72.3132 98.9484H68.4026V101.048H72.3132V98.9484ZM64.492 98.9484H60.5814V101.048H64.492V98.9484ZM56.6708 98.9484H52.7601V101.048H56.6708V98.9484ZM48.8495 98.9484H44.9389V101.048H48.8495V98.9484ZM41.0283 98.9484H37.1176V101.048H41.0283V98.9484ZM33.207 98.9484H29.2964V101.048H33.207V98.9484ZM25.3858 98.9484H23.4304V101.048H25.3858V98.9484ZM23.4304 97.8984C22.7038 97.8984 22.0162 97.7542 21.3907 97.4948L19.7819 101.374C20.9085 101.841 22.1421 102.098 23.4304 102.098V97.8984ZM18.504 94.6081C18.2446 93.9826 18.1004 93.295 18.1004 92.5684H13.9004C13.9004 93.8567 14.1572 95.0904 14.6244 96.2169L18.504 94.6081ZM18.1004 92.5684V90.6479H13.9004V92.5684H18.1004ZM18.1004 86.8067V82.9656H13.9004V86.8067H18.1004ZM18.1004 79.1245V75.2834H13.9004V79.1245H18.1004ZM18.1004 71.4423V67.6012H13.9004V71.4423H18.1004ZM18.1004 63.7601V59.919H13.9004V63.7601H18.1004ZM18.1004 56.0778V52.2367H13.9004V56.0778H18.1004ZM18.1004 48.3956V44.5545H13.9004V48.3956H18.1004ZM18.1004 40.7134V36.8723H13.9004V40.7134H18.1004ZM18.1004 33.0312V29.1901H13.9004V33.0312H18.1004ZM18.1004 25.349V23.4284H13.9004V25.349H18.1004ZM18.1004 23.4284C18.1004 22.7018 18.2446 22.0142 18.504 21.3887L14.6244 19.7799C14.1572 20.9064 13.9004 22.1401 13.9004 23.4284H18.1004ZM21.3907 18.502C22.0162 18.2426 22.7038 18.0984 23.4304 18.0984V13.8984C22.1421 13.8984 20.9084 14.1552 19.7819 14.6224L21.3907 18.502ZM23.4304 18.0984H25.3857V13.8984H23.4304V18.0984ZM29.2963 18.0984H33.207V13.8984H29.2963V18.0984ZM37.1176 18.0984H41.0282V13.8984H37.1176V18.0984ZM44.9388 18.0984H48.8495V13.8984H44.9388V18.0984ZM52.7601 18.0984H56.6707V13.8984H52.7601V18.0984ZM60.5813 18.0984H64.492V13.8984H60.5813V18.0984ZM68.4026 18.0984H72.3132V13.8984H68.4026V18.0984ZM76.2238 18.0984H80.1345V13.8984H76.2238V18.0984ZM84.0451 18.0984H87.9557V13.8984H84.0451V18.0984ZM91.8663 18.0984H95.777V13.8984H91.8663V18.0984ZM99.6876 18.0984H103.598V13.8984H99.6876V18.0984ZM107.508 18.0984H111.419V13.8984H107.508V18.0984ZM115.33 18.0984H119.24V13.8984H115.33V18.0984ZM123.151 18.0984H127.062V13.8984H123.151V18.0984ZM130.972 18.0984H134.883V13.8984H130.972V18.0984ZM138.793 18.0984H142.704V13.8984H138.793V18.0984ZM146.615 18.0984H148.57V13.8984H146.615V18.0984ZM148.57 18.0984C149.297 18.0984 149.984 18.2426 150.61 18.502L152.219 14.6224C151.092 14.1552 149.858 13.8984 148.57 13.8984V18.0984ZM153.496 21.3887C153.756 22.0142 153.9 22.7018 153.9 23.4284H158.1C158.1 22.1401 157.843 20.9064 157.376 19.7799L153.496 21.3887ZM153.9 23.4284V25.349H158.1V23.4284H153.9ZM153.9 29.1901V33.0312H158.1V29.1901H153.9ZM153.9 36.8723V40.7134H158.1V36.8723H153.9ZM153.9 44.5545V48.3956H158.1V44.5545H153.9ZM153.9 52.2367V56.0778H158.1V52.2367H153.9ZM153.9 59.919V63.7601H158.1V59.919H153.9ZM153.9 67.6012V71.4423H158.1V67.6012H153.9ZM153.9 75.2834V79.1245H158.1V75.2834H153.9ZM153.9 82.9656V86.8067H158.1V82.9656H153.9ZM153.9 90.6478V92.5684H158.1V90.6478H153.9ZM153.9 92.5684C153.9 93.295 153.756 93.9826 153.496 94.6081L157.376 96.2169C157.843 95.0904 158.1 93.8567 158.1 92.5684H153.9ZM150.61 97.4948C149.984 97.7542 149.297 97.8984 148.57 97.8984V102.098C149.858 102.098 151.092 101.841 152.219 101.374L150.61 97.4948ZM148.57 97.8984H146.615V102.098H148.57V97.8984ZM142.704 97.8984H138.793V102.098H142.704V97.8984ZM134.883 97.8984H130.972V102.098H134.883V97.8984ZM127.062 97.8984H123.151V102.098H127.062V97.8984ZM119.24 97.8984H115.33V102.098H119.24V97.8984ZM111.419 97.8984H107.508V102.098H111.419V97.8984ZM103.598 97.8984H99.6876V102.098H103.598V97.8984ZM95.777 97.8984H91.8664V102.098H95.777V97.8984ZM87.9557 97.8984H84.0451V102.098H87.9557V97.8984ZM80.1345 97.8984H76.2239V102.098H80.1345V97.8984ZM72.3132 97.8984H68.4026V102.098H72.3132V97.8984ZM64.492 97.8984H60.5814V102.098H64.492V97.8984ZM56.6708 97.8984H52.7601V102.098H56.6708V97.8984ZM48.8495 97.8984H44.9389V102.098H48.8495V97.8984ZM41.0283 97.8984H37.1176V102.098H41.0283V97.8984ZM33.207 97.8984H29.2964V102.098H33.207V97.8984ZM25.3858 97.8984H23.4304V102.098H25.3858V97.8984Z" fill="#FFC93F"/>
</g>
<g filter="url(#filter6_d_5152_31111)">
<path d="M205.528 120.5C130.169 121.803 82.6715 75.4911 57 38C101.885 112 141.236 133.5 205.528 133.5V146L239 126L205.528 107.5V120.5Z" fill="#6966FF"/>
</g>
<defs>
<filter id="filter0_d_5152_31111" x="72" y="29" width="369.998" height="286" filterUnits="userSpaceOnUse" color-interpolation-filters="sRGB">
<feFlood flood-opacity="0" result="BackgroundImageFix"/>
<feColorMatrix in="SourceAlpha" type="matrix" values="0 0 0 0 0 0 0 0 0 0 0 0 0 0 0 0 0 0 127 0" result="hardAlpha"/>
<feOffset dy="1"/>
<feGaussianBlur stdDeviation="5"/>
<feColorMatrix type="matrix" values="0 0 0 0 0.290196 0 0 0 0 0.290196 0 0 0 0 0.34902 0 0 0 0.2 0"/>
<feBlend mode="normal" in2="BackgroundImageFix" result="effect1_dropShadow_5152_31111"/>
<feBlend mode="normal" in="SourceGraphic" in2="effect1_dropShadow_5152_31111" result="shape"/>
</filter>
<filter id="filter1_d_5152_31111" x="205" y="83" width="131.668" height="87" filterUnits="userSpaceOnUse" color-interpolation-filters="sRGB">
<feFlood flood-opacity="0" result="BackgroundImageFix"/>
<feColorMatrix in="SourceAlpha" type="matrix" values="0 0 0 0 0 0 0 0 0 0 0 0 0 0 0 0 0 0 127 0" result="hardAlpha"/>
<feOffset dy="1"/>
<feGaussianBlur stdDeviation="5"/>
<feColorMatrix type="matrix" values="0 0 0 0 0.290196 0 0 0 0 0.290196 0 0 0 0 0.34902 0 0 0 0.2 0"/>
<feBlend mode="normal" in2="BackgroundImageFix" result="effect1_dropShadow_5152_31111"/>
<feBlend mode="normal" in="SourceGraphic" in2="effect1_dropShadow_5152_31111" result="shape"/>
</filter>
<filter id="filter2_d_5152_31111" x="110" y="172" width="131" height="86.6016" filterUnits="userSpaceOnUse" color-interpolation-filters="sRGB">
<feFlood flood-opacity="0" result="BackgroundImageFix"/>
<feColorMatrix in="SourceAlpha" type="matrix" values="0 0 0 0 0 0 0 0 0 0 0 0 0 0 0 0 0 0 127 0" result="hardAlpha"/>
<feOffset dy="1"/>
<feGaussianBlur stdDeviation="5"/>
<feColorMatrix type="matrix" values="0 0 0 0 0.290196 0 0 0 0 0.290196 0 0 0 0 0.34902 0 0 0 0.2 0"/>
<feBlend mode="normal" in2="BackgroundImageFix" result="effect1_dropShadow_5152_31111"/>
<feBlend mode="normal" in="SourceGraphic" in2="effect1_dropShadow_5152_31111" result="shape"/>
</filter>
<filter id="filter3_d_5152_31111" x="384" y="112" width="130" height="130" filterUnits="userSpaceOnUse" color-interpolation-filters="sRGB">
<feFlood flood-opacity="0" result="BackgroundImageFix"/>
<feColorMatrix in="SourceAlpha" type="matrix" values="0 0 0 0 0 0 0 0 0 0 0 0 0 0 0 0 0 0 127 0" result="hardAlpha"/>
<feOffset dy="1"/>
<feGaussianBlur stdDeviation="5"/>
<feColorMatrix type="matrix" values="0 0 0 0 0.290196 0 0 0 0 0.290196 0 0 0 0 0.34902 0 0 0 0.2 0"/>
<feBlend mode="normal" in2="BackgroundImageFix" result="effect1_dropShadow_5152_31111"/>
<feBlend mode="normal" in="SourceGraphic" in2="effect1_dropShadow_5152_31111" result="shape"/>
</filter>
<filter id="filter4_d_5152_31111" x="100" y="156" width="86" height="59.1641" filterUnits="userSpaceOnUse" color-interpolation-filters="sRGB">
<feFlood flood-opacity="0" result="BackgroundImageFix"/>
<feColorMatrix in="SourceAlpha" type="matrix" values="0 0 0 0 0 0 0 0 0 0 0 0 0 0 0 0 0 0 127 0" result="hardAlpha"/>
<feOffset dy="1"/>
<feGaussianBlur stdDeviation="5"/>
<feColorMatrix type="matrix" values="0 0 0 0 0.290196 0 0 0 0 0.290196 0 0 0 0 0.34902 0 0 0 0.2 0"/>
<feBlend mode="normal" in2="BackgroundImageFix" result="effect1_dropShadow_5152_31111"/>
<feBlend mode="normal" in="SourceGraphic" in2="effect1_dropShadow_5152_31111" result="shape"/>
</filter>
<filter id="filter5_d_5152_31111" x="5.87883" y="6.67903" width="160.242" height="104.246" filterUnits="userSpaceOnUse" color-interpolation-filters="sRGB">
<feFlood flood-opacity="0" result="BackgroundImageFix"/>
<feColorMatrix in="SourceAlpha" type="matrix" values="0 0 0 0 0 0 0 0 0 0 0 0 0 0 0 0 0 0 127 0" result="hardAlpha"/>
<feOffset dy="0.802156"/>
<feGaussianBlur stdDeviation="4.01078"/>
<feColorMatrix type="matrix" values="0 0 0 0 0.290196 0 0 0 0 0.290196 0 0 0 0 0.34902 0 0 0 0.2 0"/>
<feBlend mode="normal" in2="BackgroundImageFix" result="effect1_dropShadow_5152_31111"/>
<feBlend mode="normal" in="SourceGraphic" in2="effect1_dropShadow_5152_31111" result="shape"/>
</filter>
<filter id="filter6_d_5152_31111" x="47" y="29" width="202" height="128" filterUnits="userSpaceOnUse" color-interpolation-filters="sRGB">
<feFlood flood-opacity="0" result="BackgroundImageFix"/>
<feColorMatrix in="SourceAlpha" type="matrix" values="0 0 0 0 0 0 0 0 0 0 0 0 0 0 0 0 0 0 127 0" result="hardAlpha"/>
<feOffset dy="1"/>
<feGaussianBlur stdDeviation="5"/>
<feColorMatrix type="matrix" values="0 0 0 0 0.290196 0 0 0 0 0.290196 0 0 0 0 0.34902 0 0 0 0.2 0"/>
<feBlend mode="normal" in2="BackgroundImageFix" result="effect1_dropShadow_5152_31111"/>
<feBlend mode="normal" in="SourceGraphic" in2="effect1_dropShadow_5152_31111" result="shape"/>
</filter>
</defs>
</svg>
